<?xml version='1.0' encoding='utf-8'?>
<svg xmlns:xlink="http://www.w3.org/1999/xlink" xmlns="http://www.w3.org/2000/svg" version="1.1" baseProfile="full" width="600" height="600">
  <title>VFPt_horseshoe-magnet</title>
  <desc>VFPt_horseshoe-magnet
created with VectorFieldPlot 1.7
https://commons.wikimedia.org/wiki/User:Geek3/VectorFieldPlot

about: https://commons.wikimedia.org/wiki/File:VFPt_horseshoe-magnet.svg
rights: Creative Commons Attribution ShareAlike 4.0
  </desc>
  <defs>
    <clipPath id="image_clip">
      <rect x="-3.0" y="-3.0" width="6.0" height="6.0"/>
    </clipPath>
    <path id="arrow1" stroke="none" fill="#000000" transform="scale(0.01)" d="M 0.3,0 L -2.2,2.25 L 3.8,0 L -2.2,-2.25 L 0.3,0 Z"/>
  </defs>
  <rect id="background" x="0" y="0" width="600" height="600" fill="#ffffff"/>
  <g id="image" transform="translate(300.0,300.0) scale(100.0,-100.0)" clip-path="url(#image_clip)">
    <g id="fieldlines" fill="none" stroke="#000000" stroke-width="0.02" stroke-linejoin="round" stroke-linecap="round">
      <g id="fieldline1">
        <path d="M 0.7157,1.0000 L 0.7098,1.0053 L 0.7035,1.0092 L 0.6956,1.0125 L 0.6833,1.0161 L 0.6626,1.0204 L 0.6288,1.0258 L 0.5772,1.0326 L 0.5068,1.0404 L 0.4254,1.0481 L 0.3423,1.0548 L 0.2617,1.0601 L 0.1843,1.0640 L 0.1095,1.0665 L 0.0363,1.0677 L -0.0363,1.0677 L -0.1096,1.0665 L -0.1844,1.0639 L -0.2617,1.0601 L -0.3424,1.0548 L -0.4255,1.0481 L -0.5068,1.0404 L -0.5772,1.0326 L -0.6288,1.0258 L -0.6626,1.0203 L -0.6833,1.0161 L -0.6956,1.0125 L -0.7035,1.0092 L -0.7098,1.0052 L -0.7157,1.0000"/>
        <g id="arrows1">
          <use xlink:href="#arrow1" transform="translate(0.0000,1.0676) rotate(-179.82) scale(2.0)"/>
        </g>
      </g>
      <g id="fieldline2">
        <path d="M 0.7498,1.0000 L 0.7417,1.0116 L 0.7329,1.0218 L 0.7234,1.0312 L 0.7124,1.0401 L 0.6993,1.0491 L 0.6830,1.0586 L 0.6626,1.0690 L 0.6368,1.0806 L 0.6050,1.0933 L 0.5669,1.1072 L 0.5236,1.1216 L 0.4768,1.1357 L 0.4284,1.1491 L 0.3799,1.1612 L 0.3321,1.1719 L 0.2853,1.1811 L 0.2394,1.1889 L 0.1945,1.1953 L 0.1504,1.2004 L 0.1070,1.2041 L 0.0639,1.2066 L 0.0212,1.2078 L -0.0214,1.2078 L -0.0642,1.2066 L -0.1072,1.2041 L -0.1507,1.2003 L -0.1948,1.1953 L -0.2397,1.1889 L -0.2855,1.1811 L -0.3324,1.1718 L -0.3802,1.1611 L -0.4287,1.1490 L -0.4770,1.1357 L -0.5238,1.1215 L -0.5671,1.1071 L -0.6051,1.0933 L -0.6370,1.0805 L -0.6627,1.0690 L -0.6831,1.0586 L -0.6993,1.0491 L -0.7124,1.0401 L -0.7234,1.0312 L -0.7330,1.0218 L -0.7417,1.0115 L -0.7498,1.0000"/>
        <g id="arrows2">
          <use xlink:href="#arrow1" transform="translate(0.0000,1.2076) rotate(-179.36) scale(2.0)"/>
        </g>
      </g>
      <g id="fieldline3">
        <path d="M 0.7878,1.0000 L 0.7792,1.0170 L 0.7697,1.0329 L 0.7593,1.0480 L 0.7476,1.0628 L 0.7342,1.0776 L 0.7186,1.0928 L 0.7005,1.1088 L 0.6792,1.1258 L 0.6543,1.1440 L 0.6258,1.1631 L 0.5939,1.1831 L 0.5592,1.2032 L 0.5226,1.2230 L 0.4849,1.2419 L 0.4469,1.2597 L 0.4089,1.2761 L 0.3712,1.2910 L 0.3340,1.3043 L 0.2973,1.3162 L 0.2611,1.3267 L 0.2254,1.3357 L 0.1900,1.3434 L 0.1550,1.3498 L 0.1203,1.3548 L 0.0858,1.3585 L 0.0514,1.3610 L 0.0171,1.3623 L -0.0171,1.3623 L -0.0514,1.3610 L -0.0858,1.3585 L -0.1203,1.3548 L -0.1550,1.3498 L -0.1900,1.3434 L -0.2254,1.3357 L -0.2611,1.3267 L -0.2973,1.3162 L -0.3340,1.3043 L -0.3712,1.2910 L -0.4089,1.2761 L -0.4468,1.2597 L -0.4849,1.2419 L -0.5226,1.2230 L -0.5592,1.2032 L -0.5939,1.1831 L -0.6258,1.1631 L -0.6543,1.1440 L -0.6791,1.1258 L -0.7004,1.1089 L -0.7186,1.0929 L -0.7341,1.0776 L -0.7475,1.0628 L -0.7593,1.0480 L -0.7697,1.0329 L -0.7791,1.0170 L -0.7878,1.0000"/>
        <g id="arrows3">
          <use xlink:href="#arrow1" transform="translate(0.0000,1.3618) rotate(-179.19) scale(2.0)"/>
        </g>
      </g>
      <g id="fieldline4">
        <path d="M 0.8304,1.0000 L 0.8219,1.0230 L 0.8125,1.0451 L 0.8018,1.0666 L 0.7898,1.0880 L 0.7762,1.1097 L 0.7605,1.1320 L 0.7427,1.1553 L 0.7222,1.1796 L 0.6992,1.2051 L 0.6735,1.2315 L 0.6455,1.2583 L 0.6157,1.2852 L 0.5846,1.3114 L 0.5527,1.3367 L 0.5204,1.3607 L 0.4879,1.3833 L 0.4554,1.4043 L 0.4230,1.4237 L 0.3908,1.4416 L 0.3587,1.4580 L 0.3268,1.4728 L 0.2952,1.4862 L 0.2636,1.4981 L 0.2323,1.5086 L 0.2011,1.5177 L 0.1699,1.5255 L 0.1389,1.5320 L 0.1079,1.5371 L 0.0771,1.5409 L 0.0462,1.5435 L 0.0154,1.5448 L -0.0154,1.5448 L -0.0463,1.5435 L -0.0771,1.5409 L -0.1080,1.5371 L -0.1390,1.5319 L -0.1700,1.5255 L -0.2011,1.5177 L -0.2323,1.5086 L -0.2637,1.4981 L -0.2952,1.4861 L -0.3269,1.4728 L -0.3588,1.4579 L -0.3908,1.4416 L -0.4231,1.4237 L -0.4554,1.4043 L -0.4879,1.3832 L -0.5205,1.3607 L -0.5528,1.3367 L -0.5847,1.3114 L -0.6158,1.2851 L -0.6456,1.2583 L -0.6735,1.2314 L -0.6992,1.2051 L -0.7222,1.1796 L -0.7427,1.1553 L -0.7606,1.1320 L -0.7762,1.1097 L -0.7898,1.0880 L -0.8019,1.0666 L -0.8125,1.0451 L -0.8219,1.0230 L -0.8304,1.0000"/>
        <g id="arrows4">
          <use xlink:href="#arrow1" transform="translate(0.0440,1.5428) rotate(177.67) scale(2.0)"/>
          <use xlink:href="#arrow1" transform="translate(-0.0439,1.5428) rotate(-175.53) scale(2.0)"/>
        </g>
      </g>
      <g id="fieldline5">
        <path d="M 0.8784,1.0000 L 0.8708,1.0305 L 0.8621,1.0600 L 0.8521,1.0893 L 0.8407,1.1188 L 0.8276,1.1490 L 0.8126,1.1803 L 0.7956,1.2127 L 0.7765,1.2463 L 0.7554,1.2808 L 0.7326,1.3156 L 0.7083,1.3504 L 0.6828,1.3845 L 0.6565,1.4177 L 0.6296,1.4495 L 0.6023,1.4799 L 0.5747,1.5088 L 0.5469,1.5360 L 0.5189,1.5617 L 0.4908,1.5857 L 0.4625,1.6082 L 0.4341,1.6292 L 0.4057,1.6487 L 0.3771,1.6667 L 0.3484,1.6833 L 0.3197,1.6985 L 0.2909,1.7123 L 0.2620,1.7247 L 0.2331,1.7357 L 0.2041,1.7454 L 0.1750,1.7538 L 0.1459,1.7609 L 0.1168,1.7667 L 0.0876,1.7711 L 0.0584,1.7743 L 0.0292,1.7763 L -0.0000,1.7769 L -0.0292,1.7763 L -0.0584,1.7743 L -0.0876,1.7711 L -0.1168,1.7666 L -0.1459,1.7609 L -0.1750,1.7538 L -0.2041,1.7454 L -0.2331,1.7357 L -0.2620,1.7246 L -0.2909,1.7122 L -0.3197,1.6985 L -0.3485,1.6833 L -0.3771,1.6667 L -0.4057,1.6487 L -0.4342,1.6292 L -0.4625,1.6082 L -0.4908,1.5857 L -0.5189,1.5616 L -0.5469,1.5360 L -0.5748,1.5087 L -0.6024,1.4799 L -0.6297,1.4495 L -0.6565,1.4177 L -0.6828,1.3845 L -0.7083,1.3504 L -0.7326,1.3156 L -0.7555,1.2807 L -0.7765,1.2463 L -0.7956,1.2127 L -0.8126,1.1803 L -0.8276,1.1490 L -0.8407,1.1188 L -0.8521,1.0893 L -0.8621,1.0600 L -0.8708,1.0305 L -0.8784,1.0000"/>
        <g id="arrows5">
          <use xlink:href="#arrow1" transform="translate(0.2451,1.7304) rotate(160.39) scale(2.0)"/>
          <use xlink:href="#arrow1" transform="translate(-0.2451,1.7304) rotate(-158.36) scale(2.0)"/>
        </g>
      </g>
      <g id="fieldline6">
        <path d="M 0.9320,1.0000 L 0.9260,1.0426 L 0.9188,1.0841 L 0.9103,1.1256 L 0.9004,1.1679 L 0.8888,1.2113 L 0.8757,1.2558 L 0.8609,1.3011 L 0.8448,1.3466 L 0.8274,1.3917 L 0.8090,1.4359 L 0.7898,1.4790 L 0.7699,1.5206 L 0.7493,1.5606 L 0.7281,1.5990 L 0.7064,1.6358 L 0.6841,1.6710 L 0.6614,1.7047 L 0.6382,1.7368 L 0.6146,1.7674 L 0.5905,1.7965 L 0.5660,1.8242 L 0.5411,1.8504 L 0.5157,1.8752 L 0.4900,1.8987 L 0.4640,1.9207 L 0.4376,1.9415 L 0.4109,1.9608 L 0.3839,1.9788 L 0.3566,1.9956 L 0.3290,2.0109 L 0.3012,2.0250 L 0.2732,2.0378 L 0.2450,2.0493 L 0.2165,2.0595 L 0.1880,2.0684 L 0.1593,2.0760 L 0.1305,2.0824 L 0.1016,2.0875 L 0.0726,2.0913 L 0.0436,2.0938 L 0.0145,2.0951 L -0.0145,2.0951 L -0.0436,2.0938 L -0.0726,2.0913 L -0.1016,2.0874 L -0.1305,2.0824 L -0.1593,2.0760 L -0.1880,2.0684 L -0.2166,2.0595 L -0.2450,2.0493 L -0.2732,2.0378 L -0.3012,2.0250 L -0.3290,2.0109 L -0.3566,1.9955 L -0.3839,1.9788 L -0.4109,1.9608 L -0.4376,1.9414 L -0.4640,1.9207 L -0.4901,1.8987 L -0.5158,1.8752 L -0.5411,1.8504 L -0.5660,1.8242 L -0.5905,1.7965 L -0.6146,1.7674 L -0.6382,1.7368 L -0.6614,1.7047 L -0.6842,1.6710 L -0.7064,1.6358 L -0.7281,1.5990 L -0.7493,1.5606 L -0.7699,1.5205 L -0.7898,1.4789 L -0.8090,1.4359 L -0.8274,1.3917 L -0.8448,1.3465 L -0.8609,1.3010 L -0.8757,1.2557 L -0.8888,1.2112 L -0.9004,1.1679 L -0.9103,1.1256 L -0.9188,1.0841 L -0.9260,1.0426 L -0.9320,1.0000"/>
        <g id="arrows6">
          <use xlink:href="#arrow1" transform="translate(0.5052,1.8841) rotate(138.23) scale(2.0)"/>
          <use xlink:href="#arrow1" transform="translate(-0.5053,1.8842) rotate(-136.61) scale(2.0)"/>
        </g>
      </g>
      <g id="fieldline7">
        <path d="M 0.9903,1.0000 L 0.9873,1.0882 L 0.9834,1.1668 L 0.9785,1.2395 L 0.9727,1.3076 L 0.9660,1.3717 L 0.9584,1.4325 L 0.9499,1.4903 L 0.9405,1.5456 L 0.9302,1.5985 L 0.9190,1.6494 L 0.9070,1.6984 L 0.8941,1.7457 L 0.8803,1.7914 L 0.8657,1.8356 L 0.8502,1.8783 L 0.8338,1.9196 L 0.8167,1.9596 L 0.7987,1.9982 L 0.7799,2.0356 L 0.7604,2.0716 L 0.7401,2.1064 L 0.7191,2.1400 L 0.6974,2.1723 L 0.6749,2.2033 L 0.6519,2.2331 L 0.6281,2.2616 L 0.6038,2.2889 L 0.5789,2.3149 L 0.5534,2.3397 L 0.5273,2.3633 L 0.5008,2.3855 L 0.4738,2.4066 L 0.4464,2.4263 L 0.4185,2.4448 L 0.3902,2.4620 L 0.3616,2.4780 L 0.3326,2.4927 L 0.3033,2.5061 L 0.2738,2.5182 L 0.2440,2.5291 L 0.2140,2.5387 L 0.1838,2.5470 L 0.1534,2.5540 L 0.1229,2.5598 L 0.0923,2.5643 L 0.0616,2.5675 L 0.0308,2.5694 L 0.0000,2.5700 L -0.0308,2.5694 L -0.0616,2.5675 L -0.0923,2.5643 L -0.1229,2.5598 L -0.1534,2.5540 L -0.1838,2.5470 L -0.2140,2.5387 L -0.2440,2.5291 L -0.2738,2.5182 L -0.3034,2.5061 L -0.3326,2.4927 L -0.3616,2.4780 L -0.3902,2.4620 L -0.4185,2.4448 L -0.4464,2.4263 L -0.4738,2.4066 L -0.5008,2.3855 L -0.5273,2.3633 L -0.5534,2.3397 L -0.5789,2.3149 L -0.6038,2.2889 L -0.6281,2.2616 L -0.6519,2.2331 L -0.6749,2.2033 L -0.6974,2.1722 L -0.7191,2.1400 L -0.7401,2.1064 L -0.7604,2.0716 L -0.7800,2.0356 L -0.7987,1.9982 L -0.8167,1.9596 L -0.8338,1.9196 L -0.8502,1.8783 L -0.8657,1.8356 L -0.8803,1.7914 L -0.8941,1.7457 L -0.9070,1.6984 L -0.9190,1.6494 L -0.9302,1.5985 L -0.9405,1.5455 L -0.9499,1.4903 L -0.9584,1.4325 L -0.9660,1.3717 L -0.9727,1.3075 L -0.9785,1.2394 L -0.9834,1.1668 L -0.9873,1.0882 L -0.9903,1.0000"/>
        <g id="arrows7">
          <use xlink:href="#arrow1" transform="translate(0.8086,1.9762) rotate(115.47) scale(2.0)"/>
          <use xlink:href="#arrow1" transform="translate(-0.8086,1.9762) rotate(-114.20) scale(2.0)"/>
        </g>
      </g>
      <g id="fieldline8">
        <path d="M 1.0514,1.0000 L 1.0563,1.0561 L 1.0627,1.1157 L 1.0718,1.1870 L 1.0911,1.3226 L 1.1057,1.4278 L 1.1155,1.5068 L 1.1231,1.5767 L 1.1289,1.6419 L 1.1332,1.7038 L 1.1361,1.7633 L 1.1377,1.8209 L 1.1381,1.8770 L 1.1372,1.9317 L 1.1351,1.9851 L 1.1319,2.0375 L 1.1275,2.0888 L 1.1219,2.1392 L 1.1153,2.1886 L 1.1075,2.2371 L 1.0986,2.2846 L 1.0887,2.3313 L 1.0777,2.3771 L 1.0656,2.4220 L 1.0526,2.4660 L 1.0385,2.5091 L 1.0234,2.5513 L 1.0074,2.5925 L 0.9904,2.6328 L 0.9725,2.6722 L 0.9537,2.7105 L 0.9340,2.7479 L 0.9134,2.7843 L 0.8920,2.8197 L 0.8698,2.8541 L 0.8469,2.8874 L 0.8231,2.9197 L 0.7986,2.9509 L 0.7735,2.9810 L 0.7476,3.0100 M -0.7476,3.0100 L -0.7734,2.9810 L -0.7986,2.9509 L -0.8231,2.9197 L -0.8469,2.8874 L -0.8698,2.8541 L -0.8920,2.8197 L -0.9134,2.7843 L -0.9340,2.7479 L -0.9537,2.7105 L -0.9725,2.6721 L -0.9904,2.6328 L -1.0074,2.5925 L -1.0234,2.5512 L -1.0385,2.5090 L -1.0526,2.4660 L -1.0657,2.4220 L -1.0777,2.3771 L -1.0887,2.3313 L -1.0987,2.2846 L -1.1075,2.2370 L -1.1153,2.1885 L -1.1220,2.1391 L -1.1275,2.0887 L -1.1319,2.0374 L -1.1351,1.9850 L -1.1372,1.9316 L -1.1381,1.8769 L -1.1377,1.8208 L -1.1361,1.7632 L -1.1331,1.7037 L -1.1288,1.6418 L -1.1230,1.5766 L -1.1155,1.5065 L -1.1057,1.4276 L -1.0911,1.3224 L -1.0718,1.1869 L -1.0627,1.1156 L -1.0563,1.0561 L -1.0514,1.0000"/>
        <g id="arrows8">
          <use xlink:href="#arrow1" transform="translate(1.1343,1.9949) rotate(93.45) scale(2.0)"/>
          <use xlink:href="#arrow1" transform="translate(-1.1342,1.9949) rotate(-92.80) scale(2.0)"/>
        </g>
      </g>
      <g id="fieldline9">
        <path d="M 1.1127,1.0000 L 1.1196,1.0333 L 1.1276,1.0662 L 1.1372,1.1000 L 1.1485,1.1357 L 1.1624,1.1749 L 1.1798,1.2200 L 1.2029,1.2763 L 1.2399,1.3623 L 1.3024,1.5057 L 1.3385,1.5913 L 1.3692,1.6669 L 1.3966,1.7375 L 1.4215,1.8053 L 1.4446,1.8713 L 1.4659,1.9359 L 1.4856,1.9995 L 1.5038,2.0623 L 1.5206,2.1245 L 1.5360,2.1862 L 1.5500,2.2474 L 1.5628,2.3082 L 1.5741,2.3686 L 1.5843,2.4287 L 1.5931,2.4884 L 1.6006,2.5478 L 1.6069,2.6069 L 1.6120,2.6656 L 1.6158,2.7240 L 1.6183,2.7820 L 1.6197,2.8396 L 1.6198,2.8968 L 1.6187,2.9536 L 1.6164,3.0100 M -1.6164,3.0100 L -1.6187,2.9536 L -1.6198,2.8968 L -1.6197,2.8396 L -1.6183,2.7820 L -1.6158,2.7240 L -1.6120,2.6656 L -1.6069,2.6069 L -1.6006,2.5478 L -1.5931,2.4884 L -1.5842,2.4287 L -1.5741,2.3686 L -1.5627,2.3082 L -1.5500,2.2474 L -1.5360,2.1861 L -1.5206,2.1245 L -1.5038,2.0623 L -1.4856,1.9995 L -1.4659,1.9358 L -1.4446,1.8713 L -1.4215,1.8053 L -1.3965,1.7375 L -1.3692,1.6669 L -1.3385,1.5913 L -1.3023,1.5056 L -1.2399,1.3623 L -1.2028,1.2762 L -1.1798,1.2200 L -1.1624,1.1748 L -1.1485,1.1357 L -1.1371,1.1000 L -1.1276,1.0662 L -1.1196,1.0333 L -1.1127,1.0000"/>
        <g id="arrows9">
          <use xlink:href="#arrow1" transform="translate(1.4651,1.9344) rotate(72.44) scale(2.0)"/>
          <use xlink:href="#arrow1" transform="translate(-1.4651,1.9344) rotate(-72.04) scale(2.0)"/>
        </g>
      </g>
      <g id="fieldline10">
        <path d="M 1.1719,1.0000 L 1.1800,1.0233 L 1.1892,1.0458 L 1.1997,1.0681 L 1.2117,1.0907 L 1.2257,1.1143 L 1.2423,1.1396 L 1.2623,1.1678 L 1.2870,1.2002 L 1.3185,1.2392 L 1.3609,1.2893 L 1.4323,1.3712 L 1.5482,1.5034 L 1.6216,1.5889 L 1.6855,1.6650 L 1.7447,1.7375 L 1.8008,1.8082 L 1.8546,1.8779 L 1.9064,1.9471 L 1.9566,2.0161 L 2.0052,2.0852 L 2.0524,2.1543 L 2.0982,2.2237 L 2.1427,2.2933 L 2.1860,2.3633 L 2.2280,2.4336 L 2.2688,2.5043 L 2.3084,2.5754 L 2.3467,2.6469 L 2.3839,2.7188 L 2.4198,2.7910 L 2.4546,2.8636 L 2.4881,2.9366 L 2.5205,3.0100 M -2.5205,3.0100 L -2.4881,2.9366 L -2.4546,2.8637 L -2.4198,2.7910 L -2.3839,2.7188 L -2.3467,2.6469 L -2.3084,2.5754 L -2.2688,2.5043 L -2.2280,2.4336 L -2.1860,2.3633 L -2.1428,2.2933 L -2.0982,2.2237 L -2.0524,2.1543 L -2.0052,2.0852 L -1.9566,2.0162 L -1.9065,1.9472 L -1.8547,1.8780 L -1.8009,1.8082 L -1.7447,1.7376 L -1.6855,1.6651 L -1.6216,1.5889 L -1.5482,1.5034 L -1.4323,1.3712 L -1.3609,1.2893 L -1.3185,1.2392 L -1.2870,1.2002 L -1.2623,1.1678 L -1.2423,1.1396 L -1.2257,1.1143 L -1.2117,1.0907 L -1.1997,1.0681 L -1.1892,1.0458 L -1.1800,1.0233 L -1.1719,1.0000"/>
        <g id="arrows10">
          <use xlink:href="#arrow1" transform="translate(1.7831,1.7860) rotate(51.78) scale(2.0)"/>
          <use xlink:href="#arrow1" transform="translate(-1.7832,1.7860) rotate(-51.54) scale(2.0)"/>
        </g>
      </g>
      <g id="fieldline11">
        <path d="M 1.2272,1.0000 L 1.2356,1.0154 L 1.2449,1.0297 L 1.2552,1.0432 L 1.2669,1.0566 L 1.2807,1.0702 L 1.2974,1.0848 L 1.3179,1.1009 L 1.3436,1.1193 L 1.3767,1.1413 L 1.4206,1.1686 L 1.4817,1.2049 L 1.5862,1.2650 L 1.7872,1.3797 L 1.9121,1.4522 L 2.0244,1.5189 L 2.1311,1.5836 L 2.2343,1.6477 L 2.3353,1.7119 L 2.4346,1.7765 L 2.5327,1.8419 L 2.6297,1.9080 L 2.7259,1.9751 L 2.8213,2.0431 L 2.9160,2.1123 L 3.0100,2.1825 M -3.0100,2.1825 L -2.9159,2.1122 L -2.8212,2.0431 L -2.7258,1.9750 L -2.6296,1.9079 L -2.5325,1.8417 L -2.4345,1.7764 L -2.3351,1.7118 L -2.2341,1.6476 L -2.1308,1.5834 L -2.0242,1.5187 L -1.9119,1.4521 L -1.7873,1.3797 L -1.5864,1.2651 L -1.4817,1.2050 L -1.4206,1.1686 L -1.3767,1.1413 L -1.3436,1.1193 L -1.3178,1.1009 L -1.2973,1.0848 L -1.2807,1.0702 L -1.2669,1.0565 L -1.2551,1.0432 L -1.2448,1.0296 L -1.2356,1.0154 L -1.2272,1.0000"/>
        <g id="arrows11">
          <use xlink:href="#arrow1" transform="translate(2.0602,1.5406) rotate(31.25) scale(2.0)"/>
          <use xlink:href="#arrow1" transform="translate(-2.0602,1.5406) rotate(-31.19) scale(2.0)"/>
        </g>
      </g>
      <g id="fieldline12">
        <path d="M 1.2773,1.0000 L 1.2838,1.0068 L 1.2909,1.0124 L 1.2990,1.0172 L 1.3100,1.0221 L 1.3262,1.0275 L 1.3508,1.0342 L 1.3886,1.0429 L 1.4475,1.0549 L 1.5446,1.0729 L 1.9256,1.1401 L 2.1661,1.1832 L 2.3838,1.2235 L 2.5945,1.2638 L 2.8026,1.3048 L 3.0100,1.3470 M -3.0100,1.3470 L -2.8025,1.3048 L -2.5943,1.2637 L -2.3835,1.2235 L -2.1657,1.1832 L -1.9249,1.1400 L -1.5445,1.0729 L -1.4475,1.0549 L -1.3886,1.0429 L -1.3508,1.0342 L -1.3261,1.0275 L -1.3100,1.0221 L -1.2990,1.0172 L -1.2908,1.0124 L -1.2838,1.0068 L -1.2773,1.0000"/>
        <g id="arrows12">
          <use xlink:href="#arrow1" transform="translate(2.2532,1.1994) rotate(10.49) scale(2.0)"/>
          <use xlink:href="#arrow1" transform="translate(-2.2532,1.1994) rotate(-10.49) scale(2.0)"/>
        </g>
      </g>
      <g id="fieldline13">
        <path d="M 1.2773,1.0000 L 1.2838,0.9932 L 1.2909,0.9876 L 1.2990,0.9828 L 1.3100,0.9779 L 1.3262,0.9725 L 1.3508,0.9658 L 1.3886,0.9571 L 1.4475,0.9451 L 1.5446,0.9271 L 1.9256,0.8599 L 2.1661,0.8168 L 2.3838,0.7765 L 2.5945,0.7362 L 2.8026,0.6952 L 3.0100,0.6530 M -3.0100,0.6530 L -2.8025,0.6952 L -2.5943,0.7363 L -2.3835,0.7765 L -2.1657,0.8168 L -1.9249,0.8600 L -1.5445,0.9271 L -1.4475,0.9451 L -1.3886,0.9571 L -1.3508,0.9658 L -1.3261,0.9725 L -1.3100,0.9779 L -1.2990,0.9828 L -1.2908,0.9876 L -1.2838,0.9932 L -1.2773,1.0000"/>
        <g id="arrows13">
          <use xlink:href="#arrow1" transform="translate(2.2532,0.8006) rotate(-10.49) scale(2.0)"/>
          <use xlink:href="#arrow1" transform="translate(-2.2532,0.8006) rotate(10.49) scale(2.0)"/>
        </g>
      </g>
      <g id="fieldline14">
        <path d="M 1.2272,1.0000 L 1.2356,0.9846 L 1.2449,0.9703 L 1.2552,0.9568 L 1.2669,0.9434 L 1.2807,0.9298 L 1.2974,0.9152 L 1.3179,0.8991 L 1.3436,0.8807 L 1.3767,0.8587 L 1.4206,0.8314 L 1.4817,0.7951 L 1.5862,0.7350 L 1.7872,0.6203 L 1.9121,0.5478 L 2.0244,0.4811 L 2.1311,0.4164 L 2.2343,0.3523 L 2.3353,0.2881 L 2.4346,0.2235 L 2.5327,0.1581 L 2.6297,0.0920 L 2.7259,0.0249 L 2.8213,-0.0431 L 2.9160,-0.1123 L 3.0100,-0.1825 M -3.0100,-0.1825 L -2.9159,-0.1122 L -2.8212,-0.0431 L -2.7258,0.0250 L -2.6296,0.0921 L -2.5325,0.1583 L -2.4345,0.2236 L -2.3351,0.2882 L -2.2341,0.3524 L -2.1308,0.4166 L -2.0242,0.4813 L -1.9119,0.5479 L -1.7873,0.6203 L -1.5864,0.7349 L -1.4817,0.7950 L -1.4206,0.8314 L -1.3767,0.8587 L -1.3436,0.8807 L -1.3178,0.8991 L -1.2973,0.9152 L -1.2807,0.9298 L -1.2669,0.9435 L -1.2551,0.9568 L -1.2448,0.9704 L -1.2356,0.9846 L -1.2272,1.0000"/>
        <g id="arrows14">
          <use xlink:href="#arrow1" transform="translate(2.0602,0.4594) rotate(-31.25) scale(2.0)"/>
          <use xlink:href="#arrow1" transform="translate(-2.0602,0.4594) rotate(31.19) scale(2.0)"/>
        </g>
      </g>
      <g id="fieldline15">
        <path d="M 1.1719,1.0000 L 1.1801,0.9765 L 1.1894,0.9538 L 1.2000,0.9313 L 1.2122,0.9085 L 1.2264,0.8846 L 1.2433,0.8589 L 1.2637,0.8303 L 1.2891,0.7972 L 1.3215,0.7572 L 1.3657,0.7050 L 1.4455,0.6138 L 1.5538,0.4902 L 1.6261,0.4058 L 1.6901,0.3294 L 1.7495,0.2565 L 1.8059,0.1853 L 1.8600,0.1150 L 1.9121,0.0452 L 1.9626,-0.0245 L 2.0114,-0.0942 L 2.0589,-0.1640 L 2.1049,-0.2340 L 2.1497,-0.3044 L 2.1931,-0.3750 L 2.2353,-0.4461 L 2.2762,-0.5175 L 2.3159,-0.5893 L 2.3544,-0.6616 L 2.3917,-0.7342 L 2.4277,-0.8072 L 2.4625,-0.8806 L 2.4961,-0.9544 L 2.5284,-1.0285 L 2.5595,-1.1029 L 2.5893,-1.1777 L 2.6180,-1.2528 L 2.6453,-1.3282 L 2.6714,-1.4038 L 2.6963,-1.4797 L 2.7199,-1.5558 L 2.7422,-1.6321 L 2.7632,-1.7086 L 2.7830,-1.7852 L 2.8015,-1.8619 L 2.8187,-1.9387 L 2.8346,-2.0157 L 2.8493,-2.0926 L 2.8626,-2.1696 L 2.8747,-2.2465 L 2.8854,-2.3235 L 2.8949,-2.4003 L 2.9031,-2.4771 L 2.9100,-2.5538 L 2.9156,-2.6303 L 2.9200,-2.7067 L 2.9230,-2.7829 L 2.9248,-2.8588 L 2.9253,-2.9346 L 2.9245,-3.0100 M -2.9245,-3.0100 L -2.9253,-2.9346 L -2.9248,-2.8588 L -2.9230,-2.7829 L -2.9200,-2.7067 L -2.9156,-2.6303 L -2.9100,-2.5538 L -2.9031,-2.4771 L -2.8949,-2.4003 L -2.8854,-2.3235 L -2.8747,-2.2465 L -2.8626,-2.1696 L -2.8493,-2.0926 L -2.8346,-2.0157 L -2.8187,-1.9388 L -2.8015,-1.8619 L -2.7830,-1.7852 L -2.7632,-1.7086 L -2.7422,-1.6321 L -2.7199,-1.5559 L -2.6963,-1.4798 L -2.6714,-1.4039 L -2.6453,-1.3282 L -2.6180,-1.2529 L -2.5894,-1.1778 L -2.5595,-1.1030 L -2.5284,-1.0285 L -2.4961,-0.9544 L -2.4625,-0.8807 L -2.4277,-0.8073 L -2.3917,-0.7342 L -2.3544,-0.6616 L -2.3160,-0.5894 L -2.2763,-0.5176 L -2.2353,-0.4461 L -2.1931,-0.3751 L -2.1497,-0.3044 L -2.1050,-0.2341 L -2.0589,-0.1640 L -2.0115,-0.0942 L -1.9626,-0.0246 L -1.9122,0.0451 L -1.8601,0.1149 L -1.8060,0.1852 L -1.7496,0.2564 L -1.6901,0.3294 L -1.6261,0.4058 L -1.5538,0.4901 L -1.4455,0.6138 L -1.3657,0.7051 L -1.3215,0.7572 L -1.2891,0.7972 L -1.2637,0.8303 L -1.2433,0.8589 L -1.2264,0.8846 L -1.2122,0.9085 L -1.2000,0.9313 L -1.1894,0.9538 L -1.1801,0.9765 L -1.1719,1.0000"/>
        <g id="arrows15">
          <use xlink:href="#arrow1" transform="translate(1.7831,0.2140) rotate(-51.76) scale(2.0)"/>
          <use xlink:href="#arrow1" transform="translate(2.8000,-1.8567) rotate(-77.02) scale(2.0)"/>
          <use xlink:href="#arrow1" transform="translate(-2.8000,-1.8567) rotate(76.66) scale(2.0)"/>
          <use xlink:href="#arrow1" transform="translate(-1.7832,0.2140) rotate(51.62) scale(2.0)"/>
        </g>
      </g>
      <g id="fieldline16">
        <path d="M 1.1127,1.0000 L 1.1198,0.9658 L 1.1281,0.9319 L 1.1381,0.8970 L 1.1500,0.8600 L 1.1646,0.8191 L 1.1832,0.7713 L 1.2083,0.7108 L 1.2546,0.6042 L 1.3083,0.4805 L 1.3442,0.3949 L 1.3750,0.3184 L 1.4026,0.2465 L 1.4278,0.1773 L 1.4510,0.1098 L 1.4724,0.0437 L 1.4921,-0.0214 L 1.5103,-0.0858 L 1.5270,-0.1496 L 1.5423,-0.2128 L 1.5561,-0.2756 L 1.5685,-0.3380 L 1.5796,-0.4000 L 1.5893,-0.4616 L 1.5976,-0.5229 L 1.6046,-0.5838 L 1.6103,-0.6443 L 1.6146,-0.7045 L 1.6177,-0.7643 L 1.6194,-0.8237 L 1.6199,-0.8827 L 1.6190,-0.9412 L 1.6169,-0.9993 L 1.6136,-1.0569 L 1.6089,-1.1140 L 1.6031,-1.1706 L 1.5960,-1.2266 L 1.5877,-1.2821 L 1.5782,-1.3369 L 1.5675,-1.3911 L 1.5557,-1.4447 L 1.5426,-1.4976 L 1.5285,-1.5497 L 1.5132,-1.6012 L 1.4968,-1.6519 L 1.4793,-1.7018 L 1.4607,-1.7509 L 1.4411,-1.7992 L 1.4205,-1.8466 L 1.3988,-1.8931 L 1.3762,-1.9388 L 1.3525,-1.9835 L 1.3280,-2.0273 L 1.3025,-2.0701 L 1.2761,-2.1120 L 1.2488,-2.1528 L 1.2207,-2.1926 L 1.1917,-2.2314 L 1.1619,-2.2691 L 1.1314,-2.3057 L 1.1001,-2.3413 L 1.0680,-2.3758 L 1.0353,-2.4091 L 1.0019,-2.4413 L 0.9678,-2.4724 L 0.9331,-2.5023 L 0.8978,-2.5310 L 0.8619,-2.5586 L 0.8254,-2.5849 L 0.7885,-2.6101 L 0.7510,-2.6340 L 0.7131,-2.6568 L 0.6747,-2.6783 L 0.6359,-2.6986 L 0.5967,-2.7176 L 0.5571,-2.7354 L 0.5172,-2.7520 L 0.4770,-2.7673 L 0.4365,-2.7813 L 0.3957,-2.7941 L 0.3547,-2.8056 L 0.3135,-2.8158 L 0.2721,-2.8248 L 0.2305,-2.8325 L 0.1888,-2.8389 L 0.1469,-2.8440 L 0.1050,-2.8479 L 0.0630,-2.8504 L 0.0210,-2.8517 L -0.0210,-2.8517 L -0.0630,-2.8504 L -0.1050,-2.8479 L -0.1469,-2.8440 L -0.1888,-2.8389 L -0.2305,-2.8325 L -0.2721,-2.8248 L -0.3135,-2.8158 L -0.3547,-2.8056 L -0.3957,-2.7941 L -0.4365,-2.7813 L -0.4770,-2.7673 L -0.5172,-2.7520 L -0.5571,-2.7354 L -0.5967,-2.7176 L -0.6359,-2.6986 L -0.6747,-2.6783 L -0.7131,-2.6568 L -0.7510,-2.6340 L -0.7885,-2.6101 L -0.8254,-2.5849 L -0.8619,-2.5586 L -0.8978,-2.5310 L -0.9331,-2.5023 L -0.9678,-2.4724 L -1.0019,-2.4413 L -1.0353,-2.4091 L -1.0680,-2.3758 L -1.1001,-2.3413 L -1.1314,-2.3057 L -1.1619,-2.2691 L -1.1917,-2.2314 L -1.2207,-2.1926 L -1.2488,-2.1528 L -1.2761,-2.1120 L -1.3025,-2.0701 L -1.3280,-2.0273 L -1.3525,-1.9835 L -1.3762,-1.9388 L -1.3988,-1.8931 L -1.4205,-1.8466 L -1.4411,-1.7992 L -1.4607,-1.7509 L -1.4793,-1.7018 L -1.4968,-1.6519 L -1.5132,-1.6012 L -1.5285,-1.5498 L -1.5426,-1.4976 L -1.5557,-1.4447 L -1.5675,-1.3911 L -1.5782,-1.3369 L -1.5877,-1.2821 L -1.5960,-1.2266 L -1.6031,-1.1706 L -1.6089,-1.1140 L -1.6136,-1.0569 L -1.6169,-0.9993 L -1.6190,-0.9412 L -1.6199,-0.8827 L -1.6194,-0.8237 L -1.6177,-0.7643 L -1.6146,-0.7045 L -1.6103,-0.6443 L -1.6046,-0.5838 L -1.5976,-0.5229 L -1.5893,-0.4616 L -1.5796,-0.4000 L -1.5685,-0.3380 L -1.5561,-0.2756 L -1.5423,-0.2128 L -1.5270,-0.1496 L -1.5103,-0.0858 L -1.4921,-0.0214 L -1.4724,0.0437 L -1.4510,0.1098 L -1.4278,0.1773 L -1.4026,0.2465 L -1.3750,0.3184 L -1.3442,0.3949 L -1.3083,0.4805 L -1.2545,0.6044 L -1.2083,0.7109 L -1.1832,0.7714 L -1.1646,0.8191 L -1.1500,0.8601 L -1.1380,0.8971 L -1.1281,0.9319 L -1.1198,0.9658 L -1.1127,1.0000"/>
        <g id="arrows16">
          <use xlink:href="#arrow1" transform="translate(1.4651,0.0656) rotate(-72.45) scale(2.0)"/>
          <use xlink:href="#arrow1" transform="translate(1.4431,-1.7935) rotate(-112.98) scale(2.0)"/>
          <use xlink:href="#arrow1" transform="translate(0.0000,-2.8514) rotate(179.32) scale(2.0)"/>
          <use xlink:href="#arrow1" transform="translate(-1.4431,-1.7935) rotate(112.36) scale(2.0)"/>
          <use xlink:href="#arrow1" transform="translate(-1.4652,0.0657) rotate(72.01) scale(2.0)"/>
        </g>
      </g>
      <g id="fieldline17">
        <path d="M 1.0514,1.0000 L 1.0564,0.9429 L 1.0630,0.8821 L 1.0724,0.8086 L 1.0969,0.6368 L 1.1094,0.5435 L 1.1185,0.4670 L 1.1255,0.3978 L 1.1308,0.3329 L 1.1345,0.2710 L 1.1370,0.2112 L 1.1380,0.1534 L 1.1378,0.0970 L 1.1363,0.0420 L 1.1336,-0.0119 L 1.1297,-0.0646 L 1.1246,-0.1163 L 1.1183,-0.1670 L 1.1109,-0.2167 L 1.1024,-0.2655 L 1.0927,-0.3134 L 1.0819,-0.3603 L 1.0700,-0.4063 L 1.0570,-0.4514 L 1.0430,-0.4956 L 1.0280,-0.5388 L 1.0120,-0.5810 L 0.9950,-0.6223 L 0.9770,-0.6626 L 0.9580,-0.7019 L 0.9382,-0.7401 L 0.9175,-0.7774 L 0.8958,-0.8136 L 0.8734,-0.8487 L 0.8501,-0.8828 L 0.8261,-0.9158 L 0.8012,-0.9476 L 0.7757,-0.9784 L 0.7494,-1.0080 L 0.7225,-1.0365 L 0.6949,-1.0638 L 0.6667,-1.0899 L 0.6379,-1.1149 L 0.6085,-1.1386 L 0.5786,-1.1612 L 0.5482,-1.1825 L 0.5173,-1.2027 L 0.4860,-1.2216 L 0.4543,-1.2393 L 0.4222,-1.2557 L 0.3897,-1.2709 L 0.3569,-1.2848 L 0.3238,-1.2975 L 0.2904,-1.3089 L 0.2568,-1.3191 L 0.2230,-1.3280 L 0.1890,-1.3356 L 0.1548,-1.3420 L 0.1205,-1.3471 L 0.0861,-1.3509 L 0.0517,-1.3535 L 0.0172,-1.3547 L -0.0173,-1.3547 L -0.0519,-1.3534 L -0.0863,-1.3509 L -0.1207,-1.3471 L -0.1550,-1.3420 L -0.1891,-1.3356 L -0.2232,-1.3280 L -0.2570,-1.3190 L -0.2906,-1.3089 L -0.3240,-1.2974 L -0.3571,-1.2847 L -0.3899,-1.2708 L -0.4223,-1.2556 L -0.4545,-1.2392 L -0.4862,-1.2215 L -0.5175,-1.2026 L -0.5484,-1.1824 L -0.5788,-1.1611 L -0.6087,-1.1385 L -0.6380,-1.1147 L -0.6668,-1.0898 L -0.6950,-1.0636 L -0.7226,-1.0363 L -0.7496,-1.0078 L -0.7758,-0.9782 L -0.8014,-0.9475 L -0.8262,-0.9156 L -0.8503,-0.8826 L -0.8735,-0.8485 L -0.8960,-0.8134 L -0.9176,-0.7772 L -0.9383,-0.7399 L -0.9582,-0.7017 L -0.9771,-0.6624 L -0.9951,-0.6221 L -1.0121,-0.5808 L -1.0281,-0.5385 L -1.0431,-0.4953 L -1.0571,-0.4512 L -1.0701,-0.4061 L -1.0819,-0.3601 L -1.0927,-0.3131 L -1.1024,-0.2653 L -1.1110,-0.2165 L -1.1184,-0.1667 L -1.1247,-0.1160 L -1.1297,-0.0643 L -1.1337,-0.0116 L -1.1363,0.0423 L -1.1378,0.0973 L -1.1380,0.1537 L -1.1369,0.2116 L -1.1345,0.2713 L -1.1307,0.3332 L -1.1254,0.3982 L -1.1185,0.4674 L -1.1094,0.5438 L -1.0969,0.6371 L -1.0724,0.8087 L -1.0630,0.8822 L -1.0563,0.9429 L -1.0514,1.0000"/>
        <g id="arrows17">
          <use xlink:href="#arrow1" transform="translate(1.1342,0.0051) rotate(-93.50) scale(2.0)"/>
          <use xlink:href="#arrow1" transform="translate(0.0000,-1.3542) rotate(179.18) scale(2.0)"/>
          <use xlink:href="#arrow1" transform="translate(-1.1343,0.0051) rotate(92.73) scale(2.0)"/>
        </g>
      </g>
      <g id="fieldline18">
        <path d="M 0.9903,1.0000 L 0.9873,0.9118 L 0.9834,0.8332 L 0.9785,0.7605 L 0.9727,0.6924 L 0.9660,0.6283 L 0.9584,0.5675 L 0.9499,0.5097 L 0.9405,0.4544 L 0.9302,0.4015 L 0.9190,0.3506 L 0.9070,0.3016 L 0.8941,0.2543 L 0.8803,0.2086 L 0.8657,0.1644 L 0.8502,0.1217 L 0.8338,0.0804 L 0.8167,0.0404 L 0.7987,0.0018 L 0.7799,-0.0356 L 0.7604,-0.0716 L 0.7401,-0.1064 L 0.7191,-0.1400 L 0.6974,-0.1723 L 0.6749,-0.2033 L 0.6519,-0.2331 L 0.6281,-0.2616 L 0.6038,-0.2889 L 0.5789,-0.3149 L 0.5534,-0.3397 L 0.5273,-0.3633 L 0.5008,-0.3855 L 0.4738,-0.4066 L 0.4464,-0.4263 L 0.4185,-0.4448 L 0.3902,-0.4620 L 0.3616,-0.4780 L 0.3326,-0.4927 L 0.3033,-0.5061 L 0.2738,-0.5182 L 0.2440,-0.5291 L 0.2140,-0.5387 L 0.1838,-0.5470 L 0.1534,-0.5540 L 0.1229,-0.5598 L 0.0923,-0.5643 L 0.0616,-0.5675 L 0.0308,-0.5694 L 0.0000,-0.5700 L -0.0308,-0.5694 L -0.0616,-0.5675 L -0.0923,-0.5643 L -0.1229,-0.5598 L -0.1534,-0.5540 L -0.1838,-0.5470 L -0.2140,-0.5387 L -0.2440,-0.5291 L -0.2738,-0.5182 L -0.3034,-0.5061 L -0.3326,-0.4927 L -0.3616,-0.4780 L -0.3902,-0.4620 L -0.4185,-0.4448 L -0.4464,-0.4263 L -0.4738,-0.4066 L -0.5008,-0.3855 L -0.5273,-0.3633 L -0.5534,-0.3397 L -0.5789,-0.3149 L -0.6038,-0.2889 L -0.6281,-0.2616 L -0.6519,-0.2331 L -0.6749,-0.2033 L -0.6974,-0.1722 L -0.7191,-0.1400 L -0.7401,-0.1064 L -0.7604,-0.0716 L -0.7800,-0.0356 L -0.7987,0.0018 L -0.8167,0.0404 L -0.8338,0.0804 L -0.8502,0.1217 L -0.8657,0.1644 L -0.8803,0.2086 L -0.8941,0.2543 L -0.9070,0.3016 L -0.9190,0.3506 L -0.9302,0.4015 L -0.9405,0.4545 L -0.9499,0.5097 L -0.9584,0.5675 L -0.9660,0.6283 L -0.9727,0.6925 L -0.9785,0.7606 L -0.9834,0.8332 L -0.9873,0.9118 L -0.9903,1.0000"/>
        <g id="arrows18">
          <use xlink:href="#arrow1" transform="translate(0.8086,0.0238) rotate(-115.47) scale(2.0)"/>
          <use xlink:href="#arrow1" transform="translate(0.0000,-0.5692) rotate(178.92) scale(2.0)"/>
          <use xlink:href="#arrow1" transform="translate(-0.8086,0.0238) rotate(114.20) scale(2.0)"/>
        </g>
      </g>
      <g id="fieldline19">
        <path d="M 0.9320,1.0000 L 0.9260,0.9574 L 0.9188,0.9159 L 0.9103,0.8744 L 0.9004,0.8321 L 0.8888,0.7887 L 0.8757,0.7442 L 0.8609,0.6989 L 0.8448,0.6534 L 0.8274,0.6083 L 0.8090,0.5641 L 0.7898,0.5210 L 0.7699,0.4794 L 0.7493,0.4394 L 0.7281,0.4010 L 0.7064,0.3642 L 0.6841,0.3290 L 0.6614,0.2953 L 0.6382,0.2632 L 0.6146,0.2326 L 0.5905,0.2035 L 0.5660,0.1758 L 0.5411,0.1496 L 0.5157,0.1248 L 0.4900,0.1013 L 0.4640,0.0793 L 0.4376,0.0585 L 0.4109,0.0392 L 0.3839,0.0212 L 0.3566,0.0044 L 0.3290,-0.0109 L 0.3012,-0.0250 L 0.2732,-0.0378 L 0.2450,-0.0493 L 0.2165,-0.0595 L 0.1880,-0.0684 L 0.1593,-0.0760 L 0.1305,-0.0824 L 0.1016,-0.0875 L 0.0726,-0.0913 L 0.0436,-0.0938 L 0.0145,-0.0951 L -0.0145,-0.0951 L -0.0436,-0.0938 L -0.0726,-0.0913 L -0.1016,-0.0874 L -0.1305,-0.0824 L -0.1593,-0.0760 L -0.1880,-0.0684 L -0.2166,-0.0595 L -0.2450,-0.0493 L -0.2732,-0.0378 L -0.3012,-0.0250 L -0.3290,-0.0109 L -0.3566,0.0045 L -0.3839,0.0212 L -0.4109,0.0392 L -0.4376,0.0586 L -0.4640,0.0793 L -0.4901,0.1013 L -0.5158,0.1248 L -0.5411,0.1496 L -0.5660,0.1758 L -0.5905,0.2035 L -0.6146,0.2326 L -0.6382,0.2632 L -0.6614,0.2953 L -0.6842,0.3290 L -0.7064,0.3642 L -0.7281,0.4010 L -0.7493,0.4394 L -0.7699,0.4795 L -0.7898,0.5211 L -0.8090,0.5641 L -0.8274,0.6083 L -0.8448,0.6535 L -0.8609,0.6990 L -0.8757,0.7443 L -0.8888,0.7888 L -0.9004,0.8321 L -0.9103,0.8744 L -0.9188,0.9159 L -0.9260,0.9574 L -0.9320,1.0000"/>
        <g id="arrows19">
          <use xlink:href="#arrow1" transform="translate(0.5052,0.1159) rotate(-138.23) scale(2.0)"/>
          <use xlink:href="#arrow1" transform="translate(-0.5053,0.1158) rotate(136.61) scale(2.0)"/>
        </g>
      </g>
      <g id="fieldline20">
        <path d="M 0.8784,1.0000 L 0.8708,0.9695 L 0.8621,0.9400 L 0.8521,0.9107 L 0.8407,0.8812 L 0.8276,0.8510 L 0.8126,0.8197 L 0.7956,0.7873 L 0.7765,0.7537 L 0.7554,0.7192 L 0.7326,0.6844 L 0.7083,0.6496 L 0.6828,0.6155 L 0.6565,0.5823 L 0.6296,0.5505 L 0.6023,0.5201 L 0.5747,0.4912 L 0.5469,0.4640 L 0.5189,0.4383 L 0.4908,0.4143 L 0.4625,0.3918 L 0.4341,0.3708 L 0.4057,0.3513 L 0.3771,0.3333 L 0.3484,0.3167 L 0.3197,0.3015 L 0.2909,0.2877 L 0.2620,0.2753 L 0.2331,0.2643 L 0.2041,0.2546 L 0.1750,0.2462 L 0.1459,0.2391 L 0.1168,0.2333 L 0.0876,0.2289 L 0.0584,0.2257 L 0.0292,0.2237 L -0.0000,0.2231 L -0.0292,0.2237 L -0.0584,0.2257 L -0.0876,0.2289 L -0.1168,0.2334 L -0.1459,0.2391 L -0.1750,0.2462 L -0.2041,0.2546 L -0.2331,0.2643 L -0.2620,0.2754 L -0.2909,0.2878 L -0.3197,0.3015 L -0.3485,0.3167 L -0.3771,0.3333 L -0.4057,0.3513 L -0.4342,0.3708 L -0.4625,0.3918 L -0.4908,0.4143 L -0.5189,0.4384 L -0.5469,0.4640 L -0.5748,0.4913 L -0.6024,0.5201 L -0.6297,0.5505 L -0.6565,0.5823 L -0.6828,0.6155 L -0.7083,0.6496 L -0.7326,0.6844 L -0.7555,0.7193 L -0.7765,0.7537 L -0.7956,0.7873 L -0.8126,0.8197 L -0.8276,0.8510 L -0.8407,0.8812 L -0.8521,0.9107 L -0.8621,0.9400 L -0.8708,0.9695 L -0.8784,1.0000"/>
        <g id="arrows20">
          <use xlink:href="#arrow1" transform="translate(0.2451,0.2696) rotate(-160.39) scale(2.0)"/>
          <use xlink:href="#arrow1" transform="translate(-0.2451,0.2696) rotate(158.36) scale(2.0)"/>
        </g>
      </g>
      <g id="fieldline21">
        <path d="M 0.8304,1.0000 L 0.8219,0.9770 L 0.8125,0.9549 L 0.8018,0.9334 L 0.7898,0.9120 L 0.7762,0.8903 L 0.7605,0.8680 L 0.7427,0.8447 L 0.7222,0.8204 L 0.6992,0.7949 L 0.6735,0.7685 L 0.6455,0.7417 L 0.6157,0.7148 L 0.5846,0.6886 L 0.5527,0.6633 L 0.5204,0.6393 L 0.4879,0.6167 L 0.4554,0.5957 L 0.4230,0.5763 L 0.3908,0.5584 L 0.3587,0.5420 L 0.3268,0.5272 L 0.2952,0.5138 L 0.2636,0.5019 L 0.2323,0.4914 L 0.2011,0.4823 L 0.1699,0.4745 L 0.1389,0.4680 L 0.1079,0.4629 L 0.0771,0.4591 L 0.0462,0.4565 L 0.0154,0.4552 L -0.0154,0.4552 L -0.0463,0.4565 L -0.0771,0.4591 L -0.1080,0.4629 L -0.1390,0.4681 L -0.1700,0.4745 L -0.2011,0.4823 L -0.2323,0.4914 L -0.2637,0.5019 L -0.2952,0.5139 L -0.3269,0.5272 L -0.3588,0.5421 L -0.3908,0.5584 L -0.4231,0.5763 L -0.4554,0.5957 L -0.4879,0.6168 L -0.5205,0.6393 L -0.5528,0.6633 L -0.5847,0.6886 L -0.6158,0.7149 L -0.6456,0.7417 L -0.6735,0.7686 L -0.6992,0.7949 L -0.7222,0.8204 L -0.7427,0.8447 L -0.7606,0.8680 L -0.7762,0.8903 L -0.7898,0.9120 L -0.8019,0.9334 L -0.8125,0.9549 L -0.8219,0.9770 L -0.8304,1.0000"/>
        <g id="arrows21">
          <use xlink:href="#arrow1" transform="translate(0.0440,0.4572) rotate(-177.67) scale(2.0)"/>
          <use xlink:href="#arrow1" transform="translate(-0.0439,0.4572) rotate(175.53) scale(2.0)"/>
        </g>
      </g>
      <g id="fieldline22">
        <path d="M 0.7878,1.0000 L 0.7792,0.9830 L 0.7697,0.9671 L 0.7593,0.9520 L 0.7476,0.9372 L 0.7342,0.9224 L 0.7186,0.9072 L 0.7005,0.8912 L 0.6792,0.8742 L 0.6543,0.8560 L 0.6258,0.8369 L 0.5939,0.8169 L 0.5592,0.7968 L 0.5226,0.7770 L 0.4849,0.7581 L 0.4469,0.7403 L 0.4089,0.7239 L 0.3712,0.7090 L 0.3340,0.6957 L 0.2973,0.6838 L 0.2611,0.6733 L 0.2254,0.6643 L 0.1900,0.6566 L 0.1550,0.6502 L 0.1203,0.6452 L 0.0858,0.6415 L 0.0514,0.6390 L 0.0171,0.6377 L -0.0171,0.6377 L -0.0514,0.6390 L -0.0858,0.6415 L -0.1203,0.6452 L -0.1550,0.6502 L -0.1900,0.6566 L -0.2254,0.6643 L -0.2611,0.6733 L -0.2973,0.6838 L -0.3340,0.6957 L -0.3712,0.7090 L -0.4089,0.7239 L -0.4468,0.7403 L -0.4849,0.7581 L -0.5226,0.7770 L -0.5592,0.7968 L -0.5939,0.8169 L -0.6258,0.8369 L -0.6543,0.8560 L -0.6791,0.8742 L -0.7004,0.8911 L -0.7186,0.9071 L -0.7341,0.9224 L -0.7475,0.9372 L -0.7593,0.9520 L -0.7697,0.9671 L -0.7791,0.9830 L -0.7878,1.0000"/>
        <g id="arrows22">
          <use xlink:href="#arrow1" transform="translate(0.0000,0.6382) rotate(179.19) scale(2.0)"/>
        </g>
      </g>
      <g id="fieldline23">
        <path d="M 0.7498,1.0000 L 0.7417,0.9884 L 0.7329,0.9782 L 0.7234,0.9688 L 0.7124,0.9599 L 0.6993,0.9509 L 0.6830,0.9414 L 0.6626,0.9310 L 0.6368,0.9194 L 0.6050,0.9067 L 0.5669,0.8928 L 0.5236,0.8784 L 0.4768,0.8643 L 0.4284,0.8509 L 0.3799,0.8388 L 0.3321,0.8281 L 0.2853,0.8189 L 0.2394,0.8111 L 0.1945,0.8047 L 0.1504,0.7996 L 0.1070,0.7959 L 0.0639,0.7934 L 0.0212,0.7922 L -0.0214,0.7922 L -0.0642,0.7934 L -0.1072,0.7959 L -0.1507,0.7997 L -0.1948,0.8047 L -0.2397,0.8111 L -0.2855,0.8189 L -0.3324,0.8282 L -0.3802,0.8389 L -0.4287,0.8510 L -0.4770,0.8643 L -0.5238,0.8785 L -0.5671,0.8929 L -0.6051,0.9067 L -0.6370,0.9195 L -0.6627,0.9310 L -0.6831,0.9414 L -0.6993,0.9509 L -0.7124,0.9599 L -0.7234,0.9688 L -0.7330,0.9782 L -0.7417,0.9885 L -0.7498,1.0000"/>
        <g id="arrows23">
          <use xlink:href="#arrow1" transform="translate(0.0000,0.7924) rotate(179.36) scale(2.0)"/>
        </g>
      </g>
      <g id="fieldline24">
        <path d="M 0.7157,1.0000 L 0.7098,0.9947 L 0.7035,0.9908 L 0.6956,0.9875 L 0.6833,0.9839 L 0.6626,0.9796 L 0.6288,0.9742 L 0.5772,0.9674 L 0.5068,0.9596 L 0.4254,0.9519 L 0.3423,0.9452 L 0.2617,0.9399 L 0.1843,0.9360 L 0.1095,0.9335 L 0.0363,0.9323 L -0.0363,0.9323 L -0.1096,0.9335 L -0.1844,0.9361 L -0.2617,0.9399 L -0.3424,0.9452 L -0.4255,0.9519 L -0.5068,0.9596 L -0.5772,0.9674 L -0.6288,0.9742 L -0.6626,0.9797 L -0.6833,0.9839 L -0.6956,0.9875 L -0.7035,0.9908 L -0.7098,0.9948 L -0.7157,1.0000"/>
        <g id="arrows24">
          <use xlink:href="#arrow1" transform="translate(0.0000,0.9324) rotate(179.82) scale(2.0)"/>
        </g>
      </g>
    </g>
    <g id="symbols">
      <g id="horseshoe" transform="translate(0.0,-1.0)">
        <defs>
          <linearGradient y2="0" gradientUnits="objectBoundingBox" y1="0" x2="1" x1="0" id="grad1">
            <stop stop-color="#000000" stop-opacity="0.125" offset="0.0"/>
            <stop stop-color="#ffffff" stop-opacity="0.125" offset="0.07"/>
            <stop stop-color="#ffffff" stop-opacity="0.5" offset="0.25"/>
            <stop stop-color="#ffffff" stop-opacity="0.2" offset="0.6"/>
            <stop stop-color="#000000" stop-opacity="0.33" offset="1.0"/>
          </linearGradient>
          <radialGradient fx="0" fy="0" gradientUnits="userSpaceOnUse" cy="0" cx="0" r="1.3" id="grad2">
            <stop stop-color="#000000" stop-opacity="0.33" offset="0.538461538462"/>
            <stop stop-color="#ffffff" stop-opacity="0.2" offset="0.723076923077"/>
            <stop stop-color="#ffffff" stop-opacity="0.5" offset="0.884615384615"/>
            <stop stop-color="#ffffff" stop-opacity="0.125" offset="0.967692307692"/>
            <stop stop-color="#000000" stop-opacity="0.125" offset="1.0"/>
          </radialGradient>
          <radialGradient fx="0" fy="0" gradientUnits="userSpaceOnUse" cy="0" cx="0" r="1.3" id="grad3">
            <stop stop-color="#000000" stop-opacity="0.125" offset="0.538461538462"/>
            <stop stop-color="#ffffff" stop-opacity="0.125" offset="0.570769230769"/>
            <stop stop-color="#ffffff" stop-opacity="0.5" offset="0.653846153846"/>
            <stop stop-color="#ffffff" stop-opacity="0.2" offset="0.815384615385"/>
            <stop stop-color="#000000" stop-opacity="0.33" offset="1.0"/>
          </radialGradient>
          <linearGradient y2="0" gradientUnits="userSpaceOnUse" y1="0" x2="1.3" x1="-1.3" id="grad4">
            <stop stop-color="#ffffff" stop-opacity="1" offset="0"/>
            <stop stop-color="#ffffff" stop-opacity="1" offset="0.230769230769"/>
            <stop stop-color="#ffffff" stop-opacity="0" offset="0.769230769231"/>
            <stop stop-color="#ffffff" stop-opacity="0" offset="1"/>
          </linearGradient>
          <mask maskContentUnits="userSpaceOnUse" id="mask4">
            <rect y="-1.3" x="-1.3" style="fill:url(#grad4); stroke:none;" height="1.3" width="2.6"/>
          </mask>
          <linearGradient y2="0" gradientUnits="userSpaceOnUse" y1="0" x2="1.3" x1="-1.3" id="grad5">
            <stop stop-color="#ffffff" stop-opacity="0" offset="0"/>
            <stop stop-color="#ffffff" stop-opacity="0" offset="0.230769230769"/>
            <stop stop-color="#ffffff" stop-opacity="1" offset="0.769230769231"/>
            <stop stop-color="#ffffff" stop-opacity="1" offset="1"/>
          </linearGradient>
          <mask maskContentUnits="userSpaceOnUse" id="mask5">
            <rect y="-1.3" x="-1.3" style="fill:url(#grad5); stroke:none;" height="1.3" width="2.6"/>
          </mask>
        </defs>
        <path style="fill:#ff0000; stroke:none;" d="M -1.3,2.0 L -0.7,2.0 L -0.7,0 A 0.7,0.7 0 0 1 0.7,0 L 0.7,2.0 L 1.3,2.0 L 1.3,0 A 1.3,1.3 0 0 0 -1.3,0 L -1.3,2.0 Z"/>
        <path style="fill:#00cc00;stroke:none;" d="M -1.3,2.0 L -0.7,2.0 L -0.7,0 A 0.7,0.7 0 0 1 0,-0.7 L 0,-1.3 A 1.3,1.3 0 0 0 -1.3,0 L -1.3,2.0 Z"/>
        <path style="fill:url(#grad1);stroke:none;" d="M -1.3,2.0 L -0.7,2.0 L -0.7,0 L -1.3,0 L -1.3,2.0 Z"/>
        <path style="fill:url(#grad1);stroke:none;" d="M 0.7,2.0 L 1.3,2.0 L 1.3,0 L 0.7,0 L 0.7,2.0 Z"/>
        <path style="fill:url(#grad2);stroke:none;" mask="url(#mask4)" d="M -1.3,0 L -0.7,0 A 0.7,0.7 0 0 1 0.7,0 L 1.3,0 A 1.3,1.3 0 0 0 -1.3,0 Z"/>
        <path style="fill:url(#grad3);stroke:none;" mask="url(#mask5)" d="M -1.3,0 L -0.7,0 A 0.7,0.7 0 0 1 0.7,0 L 1.3,0 A 1.3,1.3 0 0 0 -1.3,0 Z"/>
        <path style="fill:none; stroke:#000000; stroke-width:0.04;" d="M -1.3,2.0 L -0.7,2.0 L -0.7,0 A 0.7,0.7 0 0 1 0.7,0 L 0.7,2.0 L 1.3,2.0 L 1.3,0 A 1.3,1.3 0 0 0 -1.3,0 L -1.3,2.0 Z"/>
        <text y="0" x="0" style="fill:#000000; stroke:none; font-size:12px; font-family:Bitstream Vera Sans;" transform="translate(1.0,1.4) scale(0.04,-0.04)" text-anchor="middle">N</text>
        <text y="0" x="0" style="fill:#000000; stroke:none; font-size:12px; font-family:Bitstream Vera Sans;" transform="translate(-1.0,1.4) scale(0.04,-0.04)" text-anchor="middle">S</text>
      </g>
    </g>
  </g>
</svg>
