<?xml version="1.0" encoding="UTF-8" standalone="no"?>
<!-- Uploaded to: SVG Repo, www.svgrepo.com, Generator: SVG Repo Mixer Tools -->

<svg
   fill="#000000"
   width="480"
   height="360"
   viewBox="0 0 600 450"
   version="1.1"
   enable-background="new 0 0 1000 1000"
   xml:space="preserve"
   id="svg144"
   sodipodi:docname="maze-svgrepo-com_2.svg"
   inkscape:version="1.2.2 (b0a8486, 2022-12-01)"
   xmlns:inkscape="http://www.inkscape.org/namespaces/inkscape"
   xmlns:sodipodi="http://sodipodi.sourceforge.net/DTD/sodipodi-0.dtd"
   xmlns="http://www.w3.org/2000/svg"
   xmlns:svg="http://www.w3.org/2000/svg"><defs
   id="defs148">









<clipPath
   clipPathUnits="userSpaceOnUse"
   id="clipPath6182"><rect
     style="fill:#e21f43;fill-opacity:0.380798;stroke:#000000;stroke-width:0.294599;stroke-linecap:round;stroke-dasharray:none;stroke-opacity:1"
     id="rect6184"
     width="726.07446"
     height="198.59705"
     x="1672.4622"
     y="929.67816" /></clipPath>



<clipPath
   clipPathUnits="userSpaceOnUse"
   id="clipPath23745"><path
     d="m 269.57641,121.92439 v 6.69128 h 96.99617 96.99193 v 143.81825 143.81827 h -43.47855 -43.4828 V 315.91249 215.57279 H 269.57641 162.54966 v 6.69128 6.68707 h 100.3397 100.3397 v 93.6484 93.64841 H 212.71951 62.209962 v 6.69129 6.69128 H 269.57641 476.94286 V 272.43392 115.23734 H 373.25963 269.57641 Z"
     id="path23747"
     style="stroke-width:0.1" /></clipPath></defs><sodipodi:namedview
   id="namedview146"
   pagecolor="#ffffff"
   bordercolor="#666666"
   borderopacity="1.0"
   inkscape:showpageshadow="2"
   inkscape:pageopacity="0.0"
   inkscape:pagecheckerboard="0"
   inkscape:deskcolor="#d1d1d1"
   showgrid="false"
   inkscape:zoom="1.3622282"
   inkscape:cx="331.07523"
   inkscape:cy="201.50809"
   inkscape:window-width="1920"
   inkscape:window-height="997"
   inkscape:window-x="0"
   inkscape:window-y="28"
   inkscape:window-maximized="1"
   inkscape:current-layer="svg144" />

<path
   d="M 796.24633,15.137995 V 172.33459 h 103.68322 103.68325 v -6.68705 -6.68705 H 906.6166 809.62467 V 65.307843 -28.340561 h 43.47855 43.47856 v -6.691294 -6.691293 h -43.47856 -43.47855 v -43.478556 -43.478556 h 200.67513 200.6794 v -6.69129 -6.6913 H 1003.6128 796.24633 Z"
   id="path132"
   style="stroke-width:0.0999998" /><g
   id="g27397"
   transform="translate(22.980492,-6.1760426)"><rect
     style="fill:#000000;fill-opacity:1;stroke:#000000;stroke-width:0.125;stroke-linecap:round;stroke-dasharray:none;stroke-opacity:1"
     id="rect14571"
     width="318.08658"
     height="268.44083"
     x="59.283989"
     y="192.52377"
     clip-path="url(#clipPath23745)"
     transform="translate(57.197993,-79.869854)" /><path
     d="m 150.31893,171.34489 3.7954,2.29841 -4.77269,8.04734 -4.82812,7.98901 h 28.11395 28.16938 v 4.59974 4.59973 h -28.16938 -28.11395 l 4.82812,7.98901 4.82812,8.04734 -2.70142,1.55172 c -1.49365,0.86336 -3.27612,1.95423 -3.96751,2.35674 -1.20776,0.80503 -1.43822,0.46085 -8.85399,-11.84204 l -7.58788,-12.7025 7.58788,-12.64417 c 4.19507,-6.95647 7.64623,-12.64415 7.70166,-12.64415 0.0612,0.0554 1.84081,1.08794 3.97043,2.35382 z"
     id="path134"
     style="fill:#52c518;fill-opacity:1;stroke:#000000;stroke-width:0.0999996;stroke-opacity:1" /><path
     d="m 173.12911,272.62735 -3.67685,2.22703 4.62362,7.79742 4.67733,7.7409 h -27.23304 -27.28956 v 4.45688 4.45688 h 27.28956 27.23304 l -4.67733,7.74089 -4.67732,7.79742 2.61704,1.50353 c 1.447,0.83655 3.1738,1.89354 3.8436,2.28355 1.17004,0.78002 1.39331,0.44654 8.57744,-11.47427 l 7.35089,-12.308 -7.35089,-12.25147 c -4.06686,-6.73761 -7.4074,-12.25148 -7.46393,-12.25148 -0.0566,0.0509 -1.78331,1.05416 -3.8436,2.28072 z"
     id="path138"
     style="fill:#e21f43;fill-opacity:1;stroke-width:0.1" /><path
     d="m 1778.4836,590.34851 v 370.48 h 244.36 244.36 v -15.76 -15.76 h -228.6 -228.59 v -220.72 -220.71 h 102.47 102.47 v -15.77 -15.77 h -102.47 -102.47 v -102.47 -102.47 h 472.95 472.96 v -15.77 -15.77 h -488.72 -488.72 z"
     id="path132-3"
     style="stroke-width:0.0294599;stroke-dasharray:none"
     clip-path="url(#clipPath6182)"
     transform="matrix(0.42430522,0,0,0.42430522,-629.20634,-258.41312)" /><path
     d="m 1778.4836,590.34851 v 370.48 h 244.36 244.36 v -15.76 -15.76 h -228.6 -228.59 v -220.72 -220.71 h 102.47 102.47 v -15.77 -15.77 h -102.47 -102.47 v -102.47 -102.47 h 472.95 472.96 v -15.77 -15.77 h -488.72 -488.72 z"
     id="path12752"
     style="stroke-width:0.032064;stroke-dasharray:none"
     clip-path="url(#clipPath6182)"
     transform="matrix(0.35818391,0,0,0.42430522,-511.48197,-156.86312)" /></g>
</svg>
